<mxfile host="app.diagrams.net" agent="Mozilla/5.0 (Windows NT 10.0; Win64; x64) AppleWebKit/537.36 (KHTML, like Gecko) Chrome/134.0.0.0 Safari/537.36 Edg/134.0.0.0" version="26.1.3">
  <diagram name="第 1 页" id="Z5jD86-BHT1hPuSzs5CN">
    <mxGraphModel dx="1497" dy="440" grid="1" gridSize="10" guides="1" tooltips="1" connect="1" arrows="1" fold="1" page="1" pageScale="1" pageWidth="827" pageHeight="1169" math="0" shadow="0">
      <root>
        <mxCell id="0" />
        <mxCell id="1" parent="0" />
        <mxCell id="9Bey0T8y7MYgmhgqEHoG-7" style="edgeStyle=orthogonalEdgeStyle;rounded=0;orthogonalLoop=1;jettySize=auto;html=1;entryX=0.5;entryY=0;entryDx=0;entryDy=0;" parent="1" source="9Bey0T8y7MYgmhgqEHoG-4" target="9Bey0T8y7MYgmhgqEHoG-5" edge="1">
          <mxGeometry relative="1" as="geometry">
            <Array as="points">
              <mxPoint x="410" y="80" />
              <mxPoint x="-30" y="80" />
              <mxPoint x="-30" y="100" />
            </Array>
          </mxGeometry>
        </mxCell>
        <mxCell id="9Bey0T8y7MYgmhgqEHoG-8" style="edgeStyle=orthogonalEdgeStyle;rounded=0;orthogonalLoop=1;jettySize=auto;html=1;entryX=0.5;entryY=0;entryDx=0;entryDy=0;" parent="1" source="9Bey0T8y7MYgmhgqEHoG-4" target="9Bey0T8y7MYgmhgqEHoG-6" edge="1">
          <mxGeometry relative="1" as="geometry">
            <Array as="points">
              <mxPoint x="410" y="80" />
              <mxPoint x="920" y="80" />
            </Array>
          </mxGeometry>
        </mxCell>
        <mxCell id="9Bey0T8y7MYgmhgqEHoG-4" value="requirement" style="rounded=0;whiteSpace=wrap;html=1;" parent="1" vertex="1">
          <mxGeometry x="360" y="30" width="100" height="40" as="geometry" />
        </mxCell>
        <mxCell id="9Bey0T8y7MYgmhgqEHoG-16" style="edgeStyle=orthogonalEdgeStyle;rounded=0;orthogonalLoop=1;jettySize=auto;html=1;entryX=0.5;entryY=0;entryDx=0;entryDy=0;" parent="1" source="9Bey0T8y7MYgmhgqEHoG-5" target="9Bey0T8y7MYgmhgqEHoG-9" edge="1">
          <mxGeometry relative="1" as="geometry">
            <Array as="points">
              <mxPoint x="-30" y="170" />
              <mxPoint x="-361" y="170" />
            </Array>
          </mxGeometry>
        </mxCell>
        <mxCell id="9Bey0T8y7MYgmhgqEHoG-17" style="edgeStyle=orthogonalEdgeStyle;rounded=0;orthogonalLoop=1;jettySize=auto;html=1;" parent="1" source="9Bey0T8y7MYgmhgqEHoG-5" edge="1">
          <mxGeometry relative="1" as="geometry">
            <mxPoint y="190" as="targetPoint" />
            <Array as="points">
              <mxPoint x="-30" y="170" />
              <mxPoint x="1" y="170" />
              <mxPoint x="1" y="190" />
            </Array>
          </mxGeometry>
        </mxCell>
        <mxCell id="9Bey0T8y7MYgmhgqEHoG-18" style="edgeStyle=orthogonalEdgeStyle;rounded=0;orthogonalLoop=1;jettySize=auto;html=1;" parent="1" source="9Bey0T8y7MYgmhgqEHoG-5" target="9Bey0T8y7MYgmhgqEHoG-11" edge="1">
          <mxGeometry relative="1" as="geometry">
            <Array as="points">
              <mxPoint x="-30" y="170" />
              <mxPoint x="350" y="170" />
            </Array>
          </mxGeometry>
        </mxCell>
        <mxCell id="9Bey0T8y7MYgmhgqEHoG-19" style="edgeStyle=orthogonalEdgeStyle;rounded=0;orthogonalLoop=1;jettySize=auto;html=1;" parent="1" source="9Bey0T8y7MYgmhgqEHoG-5" target="9Bey0T8y7MYgmhgqEHoG-12" edge="1">
          <mxGeometry relative="1" as="geometry">
            <Array as="points">
              <mxPoint x="-30" y="170" />
              <mxPoint x="670" y="170" />
            </Array>
          </mxGeometry>
        </mxCell>
        <mxCell id="9Bey0T8y7MYgmhgqEHoG-5" value="Functional requirements" style="rounded=0;whiteSpace=wrap;html=1;" parent="1" vertex="1">
          <mxGeometry x="-80" y="100" width="100" height="40" as="geometry" />
        </mxCell>
        <mxCell id="9Bey0T8y7MYgmhgqEHoG-6" value="non-f&lt;span style=&quot;background-color: transparent; color: light-dark(rgb(0, 0, 0), rgb(255, 255, 255));&quot;&gt;unctional requirements&lt;/span&gt;" style="rounded=0;whiteSpace=wrap;html=1;" parent="1" vertex="1">
          <mxGeometry x="870" y="100" width="100" height="40" as="geometry" />
        </mxCell>
        <mxCell id="9Bey0T8y7MYgmhgqEHoG-30" style="edgeStyle=orthogonalEdgeStyle;rounded=0;orthogonalLoop=1;jettySize=auto;html=1;" parent="1" source="9Bey0T8y7MYgmhgqEHoG-9" target="9Bey0T8y7MYgmhgqEHoG-14" edge="1">
          <mxGeometry relative="1" as="geometry" />
        </mxCell>
        <mxCell id="9Bey0T8y7MYgmhgqEHoG-31" style="edgeStyle=orthogonalEdgeStyle;rounded=0;orthogonalLoop=1;jettySize=auto;html=1;entryX=0.5;entryY=0;entryDx=0;entryDy=0;" parent="1" source="9Bey0T8y7MYgmhgqEHoG-9" target="9Bey0T8y7MYgmhgqEHoG-23" edge="1">
          <mxGeometry relative="1" as="geometry" />
        </mxCell>
        <mxCell id="9Bey0T8y7MYgmhgqEHoG-32" style="edgeStyle=orthogonalEdgeStyle;rounded=0;orthogonalLoop=1;jettySize=auto;html=1;entryX=0.5;entryY=0;entryDx=0;entryDy=0;" parent="1" source="9Bey0T8y7MYgmhgqEHoG-9" target="9Bey0T8y7MYgmhgqEHoG-21" edge="1">
          <mxGeometry relative="1" as="geometry" />
        </mxCell>
        <mxCell id="9Bey0T8y7MYgmhgqEHoG-33" style="edgeStyle=orthogonalEdgeStyle;rounded=0;orthogonalLoop=1;jettySize=auto;html=1;entryX=0.5;entryY=0;entryDx=0;entryDy=0;" parent="1" source="9Bey0T8y7MYgmhgqEHoG-9" target="9Bey0T8y7MYgmhgqEHoG-22" edge="1">
          <mxGeometry relative="1" as="geometry" />
        </mxCell>
        <mxCell id="9Bey0T8y7MYgmhgqEHoG-9" value="&lt;h4 style=&quot;font-weight: var(--ds-font-weight-strong); line-height: var(--ds-md-line-height); margin: calc(var(--ds-md-zoom)*16px)0 calc(var(--ds-md-zoom)*12px)0; color: rgb(64, 64, 64); font-family: DeepSeek-CJK-patch, Inter, system-ui, -apple-system, BlinkMacSystemFont, &amp;quot;Segoe UI&amp;quot;, Roboto, &amp;quot;Noto Sans&amp;quot;, Ubuntu, Cantarell, &amp;quot;Helvetica Neue&amp;quot;, Oxygen, &amp;quot;Open Sans&amp;quot;, sans-serif;&quot;&gt;&lt;strong style=&quot;&quot;&gt;&lt;font style=&quot;font-size: 10px;&quot;&gt;Data Input and Enhancement Processing&lt;/font&gt;&lt;/strong&gt;&lt;/h4&gt;" style="rounded=0;whiteSpace=wrap;html=1;align=center;" parent="1" vertex="1">
          <mxGeometry x="-413" y="190" width="103" height="40" as="geometry" />
        </mxCell>
        <mxCell id="9Bey0T8y7MYgmhgqEHoG-34" style="edgeStyle=orthogonalEdgeStyle;rounded=0;orthogonalLoop=1;jettySize=auto;html=1;entryX=0.5;entryY=0;entryDx=0;entryDy=0;" parent="1" source="9Bey0T8y7MYgmhgqEHoG-10" target="9Bey0T8y7MYgmhgqEHoG-24" edge="1">
          <mxGeometry relative="1" as="geometry" />
        </mxCell>
        <mxCell id="9Bey0T8y7MYgmhgqEHoG-35" style="edgeStyle=orthogonalEdgeStyle;rounded=0;orthogonalLoop=1;jettySize=auto;html=1;entryX=0.5;entryY=0;entryDx=0;entryDy=0;" parent="1" source="9Bey0T8y7MYgmhgqEHoG-10" target="9Bey0T8y7MYgmhgqEHoG-25" edge="1">
          <mxGeometry relative="1" as="geometry" />
        </mxCell>
        <mxCell id="9Bey0T8y7MYgmhgqEHoG-10" value="&lt;b&gt;&lt;span style=&quot;line-height: 115%; font-family: 等线;&quot; lang=&quot;EN-US&quot;&gt;&lt;font style=&quot;font-size: 10px;&quot;&gt;Deep&lt;br/&gt;Learning-Based Lesion Grading Detection Algorithm&lt;/font&gt;&lt;/span&gt;&lt;/b&gt;" style="rounded=0;whiteSpace=wrap;html=1;" parent="1" vertex="1">
          <mxGeometry x="-80" y="190" width="160" height="40" as="geometry" />
        </mxCell>
        <mxCell id="9Bey0T8y7MYgmhgqEHoG-36" style="edgeStyle=orthogonalEdgeStyle;rounded=0;orthogonalLoop=1;jettySize=auto;html=1;entryX=0.5;entryY=0;entryDx=0;entryDy=0;" parent="1" source="9Bey0T8y7MYgmhgqEHoG-11" target="9Bey0T8y7MYgmhgqEHoG-26" edge="1">
          <mxGeometry relative="1" as="geometry">
            <Array as="points">
              <mxPoint x="350" y="250" />
              <mxPoint x="240" y="250" />
            </Array>
          </mxGeometry>
        </mxCell>
        <mxCell id="9Bey0T8y7MYgmhgqEHoG-37" style="edgeStyle=orthogonalEdgeStyle;rounded=0;orthogonalLoop=1;jettySize=auto;html=1;entryX=0.5;entryY=0;entryDx=0;entryDy=0;" parent="1" source="9Bey0T8y7MYgmhgqEHoG-11" target="9Bey0T8y7MYgmhgqEHoG-27" edge="1">
          <mxGeometry relative="1" as="geometry">
            <Array as="points">
              <mxPoint x="350" y="250" />
              <mxPoint x="450" y="250" />
            </Array>
          </mxGeometry>
        </mxCell>
        <mxCell id="9Bey0T8y7MYgmhgqEHoG-11" value="&lt;b&gt;&lt;span style=&quot;line-height: 115%; font-family: 等线;&quot; lang=&quot;EN-US&quot;&gt;&lt;font style=&quot;font-size: 10px;&quot;&gt;Automated&lt;br/&gt;Detection Report Generation&lt;/font&gt;&lt;/span&gt;&lt;/b&gt;" style="rounded=0;whiteSpace=wrap;html=1;" parent="1" vertex="1">
          <mxGeometry x="280" y="190" width="140" height="40" as="geometry" />
        </mxCell>
        <mxCell id="9Bey0T8y7MYgmhgqEHoG-38" style="edgeStyle=orthogonalEdgeStyle;rounded=0;orthogonalLoop=1;jettySize=auto;html=1;entryX=0.5;entryY=0;entryDx=0;entryDy=0;" parent="1" source="9Bey0T8y7MYgmhgqEHoG-12" target="9Bey0T8y7MYgmhgqEHoG-28" edge="1">
          <mxGeometry relative="1" as="geometry" />
        </mxCell>
        <mxCell id="9Bey0T8y7MYgmhgqEHoG-39" style="edgeStyle=orthogonalEdgeStyle;rounded=0;orthogonalLoop=1;jettySize=auto;html=1;entryX=0.5;entryY=0;entryDx=0;entryDy=0;" parent="1" source="9Bey0T8y7MYgmhgqEHoG-12" target="9Bey0T8y7MYgmhgqEHoG-29" edge="1">
          <mxGeometry relative="1" as="geometry" />
        </mxCell>
        <mxCell id="9Bey0T8y7MYgmhgqEHoG-12" value="&lt;b&gt;&lt;span style=&quot;line-height: 115%; font-family: 等线;&quot; lang=&quot;EN-US&quot;&gt;&lt;font style=&quot;font-size: 10px;&quot;&gt;User&lt;br/&gt;Interface&lt;/font&gt;&lt;/span&gt;&lt;/b&gt;" style="rounded=0;whiteSpace=wrap;html=1;" parent="1" vertex="1">
          <mxGeometry x="620" y="190" width="100" height="40" as="geometry" />
        </mxCell>
        <mxCell id="9Bey0T8y7MYgmhgqEHoG-14" value="&lt;b&gt;&lt;span style=&quot;line-height: 115%; font-family: 等线;&quot; lang=&quot;EN-US&quot;&gt;&lt;font style=&quot;font-size: 12px;&quot;&gt;Image&lt;br/&gt;Standardization&lt;/font&gt;&lt;/span&gt;&lt;/b&gt;" style="rounded=0;whiteSpace=wrap;html=1;" parent="1" vertex="1">
          <mxGeometry x="-550" y="280" width="100" height="40" as="geometry" />
        </mxCell>
        <mxCell id="9Bey0T8y7MYgmhgqEHoG-21" value="&lt;b&gt;&lt;span style=&quot;line-height: 115%; font-family: 等线;&quot; lang=&quot;EN-US&quot;&gt;&lt;font style=&quot;font-size: 12px;&quot;&gt;Noise&lt;br/&gt;Removal&lt;/font&gt;&lt;/span&gt;&lt;/b&gt;" style="rounded=0;whiteSpace=wrap;html=1;" parent="1" vertex="1">
          <mxGeometry x="-480" y="370" width="100" height="40" as="geometry" />
        </mxCell>
        <mxCell id="9Bey0T8y7MYgmhgqEHoG-22" value="&lt;b&gt;&lt;span style=&quot;line-height: 115%; font-family: 等线;&quot; lang=&quot;EN-US&quot;&gt;&lt;font style=&quot;font-size: 12px;&quot;&gt;Pixel-level&lt;br/&gt;Annotation&lt;/font&gt;&lt;/span&gt;&lt;/b&gt;" style="rounded=0;whiteSpace=wrap;html=1;" parent="1" vertex="1">
          <mxGeometry x="-340" y="370" width="100" height="40" as="geometry" />
        </mxCell>
        <mxCell id="9Bey0T8y7MYgmhgqEHoG-23" value="&lt;b&gt;&lt;span style=&quot;line-height: 115%; font-family: 等线;&quot; lang=&quot;EN-US&quot;&gt;&lt;font style=&quot;font-size: 12px;&quot;&gt;Brightness&lt;br/&gt;Adjustment&lt;/font&gt;&lt;/span&gt;&lt;/b&gt;" style="rounded=0;whiteSpace=wrap;html=1;" parent="1" vertex="1">
          <mxGeometry x="-280" y="280" width="100" height="40" as="geometry" />
        </mxCell>
        <mxCell id="9Bey0T8y7MYgmhgqEHoG-24" value="&lt;b&gt;&lt;span style=&quot;line-height: 115%; font-family: 等线;&quot; lang=&quot;EN-US&quot;&gt;&lt;font style=&quot;font-size: 12px;&quot;&gt;Model&lt;br&gt;Selection and Training&lt;/font&gt;&lt;/span&gt;&lt;/b&gt;" style="rounded=0;whiteSpace=wrap;html=1;" parent="1" vertex="1">
          <mxGeometry x="-130" y="280" width="100" height="40" as="geometry" />
        </mxCell>
        <mxCell id="9Bey0T8y7MYgmhgqEHoG-25" value="&lt;b&gt;&lt;span style=&quot;line-height: 115%; font-family: 等线;&quot; lang=&quot;EN-US&quot;&gt;&lt;font style=&quot;font-size: 12px;&quot;&gt;Lesion&lt;br&gt;Grading Algorithm&lt;/font&gt;&lt;/span&gt;&lt;/b&gt;" style="rounded=0;whiteSpace=wrap;html=1;" parent="1" vertex="1">
          <mxGeometry x="30" y="280" width="100" height="40" as="geometry" />
        </mxCell>
        <mxCell id="9Bey0T8y7MYgmhgqEHoG-26" value="&lt;b&gt;&lt;span style=&quot;line-height: 115%; font-family: 等线;&quot; lang=&quot;EN-US&quot;&gt;&lt;font style=&quot;font-size: 12px;&quot;&gt;Condition&lt;br&gt;Analysis&lt;/font&gt;&lt;/span&gt;&lt;/b&gt;" style="rounded=0;whiteSpace=wrap;html=1;" parent="1" vertex="1">
          <mxGeometry x="190" y="280" width="100" height="40" as="geometry" />
        </mxCell>
        <mxCell id="9Bey0T8y7MYgmhgqEHoG-27" value="&lt;b&gt;&lt;span style=&quot;line-height: 115%; font-family: 等线;&quot; lang=&quot;EN-US&quot;&gt;&lt;font style=&quot;font-size: 12px;&quot;&gt;Report&lt;br&gt;Generation&lt;/font&gt;&lt;/span&gt;&lt;/b&gt;" style="rounded=0;whiteSpace=wrap;html=1;" parent="1" vertex="1">
          <mxGeometry x="400" y="280" width="100" height="40" as="geometry" />
        </mxCell>
        <mxCell id="9Bey0T8y7MYgmhgqEHoG-28" value="&lt;b&gt;&lt;span style=&quot;line-height: 115%; font-family: 等线;&quot; lang=&quot;EN-US&quot;&gt;&lt;font style=&quot;font-size: 12px;&quot;&gt;Physician&lt;br&gt;Interface&lt;/font&gt;&lt;/span&gt;&lt;/b&gt;" style="rounded=0;whiteSpace=wrap;html=1;" parent="1" vertex="1">
          <mxGeometry x="530" y="280" width="100" height="40" as="geometry" />
        </mxCell>
        <mxCell id="9Bey0T8y7MYgmhgqEHoG-29" value="&lt;b&gt;&lt;span style=&quot;line-height: 115%; font-family: 等线;&quot; lang=&quot;EN-US&quot;&gt;&lt;font style=&quot;font-size: 12px;&quot;&gt;Patient&lt;br&gt;Interface&lt;/font&gt;&lt;/span&gt;&lt;/b&gt;" style="rounded=0;whiteSpace=wrap;html=1;" parent="1" vertex="1">
          <mxGeometry x="710" y="280" width="100" height="40" as="geometry" />
        </mxCell>
      </root>
    </mxGraphModel>
  </diagram>
</mxfile>
